<?xml version="1.0" standalone="no"?>
<!DOCTYPE svg PUBLIC "-//W3C//DTD SVG 1.1//EN" "http://www.w3.org/Graphics/SVG/1.1/DTD/svg11.dtd" >
<svg xmlns="http://www.w3.org/2000/svg" xmlns:xlink="http://www.w3.org/1999/xlink" version="1.1" viewBox="-10 -81 1067 1024">
   <path fill="currentColor"
d="M274 320q-17 10 -50 32q17 11 50 32v110q-71 -34 -103 -105q-33 -70 -63 -153q9 -33 27 -74q18 -42 63 -95q38 -45 89 -79q51 -33 109 -52q-67 58 -98 129q-30 71 -24 160v43v52zM570 85q-7 -5 -22 -13l-21 -48q-8 16 -24 49q-65 38 -197 114q10 -99 69 -160
q59 -62 146 -112h3h3v0q96 0 183 41t146 111l10 12t9 12q-72 -29 -152 -32t-153 26zM95 427q-13 -38 -42 -54l-29 -16l-2 -1t-2 -4t2 -4l2 -1l18 -9q19 -10 36 -30q5 11 10 23q6 12 11 24q39 87 101 138q63 51 158 54q29 17 86 49q-99 -1 -176 -38q-78 -37 -163 -100
q-2 -8 -5 -16q-2 -8 -5 -15zM1030 347l1 1q2 2 2 4q0 3 -2 4l-1 1l-24 13q-23 12 -40 40q-15 -69 -45 -131q-30 -61 -88 -97q-35 -22 -76 -29q-40 -7 -80 -6q-26 -15 -78 -46q29 -6 61 -8t65 2q60 7 116 31t91 67q9 24 14 44q6 21 13 40q13 37 42 53zM527 789v0
q-96 0 -183 -41t-146 -111q-21 -25 -36 -47q-14 -22 -24 -42q3 2 7 4q3 2 6 3q77 44 161 60q84 15 169 3q8 4 22 12l24 51q7 -16 21 -49q78 -45 232 -134v-64q19 83 0 157t-63 153q-43 21 -92 33q-48 12 -98 12zM854 637q-10 12 -21 22q-11 11 -22 21q15 -56 18 -114
q3 -57 -16 -114q-6 -18 -13 -37q-8 -18 -16 -35q15 -9 46 -28q-17 -10 -50 -31v-115q-15 -9 -46 -27q77 17 114 71q37 53 53 123q9 38 13 79t6 82q-10 22 -26 48q-15 25 -40 55z" />
</svg>
