<?xml version="1.0" standalone="no"?>
<!DOCTYPE svg PUBLIC "-//W3C//DTD SVG 1.1//EN" "http://www.w3.org/Graphics/SVG/1.1/DTD/svg11.dtd" >
<svg xmlns="http://www.w3.org/2000/svg" xmlns:xlink="http://www.w3.org/1999/xlink" version="1.1" viewBox="-10 -81 679 1024">
   <path fill="currentColor"
d="M335 298v0v0q-20 39 -44 76q-25 37 -51 71l-7 7l-6 7q18 13 34 27q17 15 32 30q11 10 21 22l22 22l20 -22q11 -12 22 -22q15 -15 31 -30q17 -14 34 -27l-5 -7l-6 -6q-28 -35 -52 -72t-45 -76zM335 -82v0v0v0v0q10 41 20 81t24 78q13 39 29 77q16 37 34 74q19 36 41 71
q22 34 47 66q27 32 56 60q30 29 64 52v0v0q-25 13 -50 28q-24 15 -47 31t-45 34q-21 17 -41 37t-38 41q-19 21 -35 44q-17 23 -31 47q-15 24 -28 50q-13 -26 -28 -50q-14 -24 -31 -47q-16 -23 -34 -44t-38 -41t-42 -37q-21 -18 -44 -34q-24 -16 -48 -31t-50 -28
q34 -23 64 -52q30 -28 55 -60q26 -32 48 -66q22 -35 41 -71q19 -37 35 -74q16 -38 29 -76q13 -39 23 -79q11 -40 20 -81v0v0z" />
</svg>
