<?xml version="1.0" standalone="no"?>
<!DOCTYPE svg PUBLIC "-//W3C//DTD SVG 1.1//EN" "http://www.w3.org/Graphics/SVG/1.1/DTD/svg11.dtd" >
<svg xmlns="http://www.w3.org/2000/svg" xmlns:xlink="http://www.w3.org/1999/xlink" version="1.1" viewBox="-10 -81 921 1024">
   <path fill="currentColor"
d="M747 499v0v0v17v17q-1 49 16 96q16 47 47 86q-40 -31 -86 -47q-47 -17 -97 -17h-17h-16q-1 1 -3 2q-1 1 -2 1l-17 17l-40 40l-53 53l-25 25l-17 -17q-16 -17 -38 -39l-51 -51l-24 -24q-4 -2 -7 -3q-4 -2 -7 -4h-17h-17q-50 0 -97 17q-47 16 -85 47q31 -39 46 -86
q16 -47 16 -96v-17v-17q-1 -4 -3 -7q-1 -4 -3 -7l-17 -17l-39 -39q-26 -27 -51 -51l-24 -25l18 -17q17 -18 40 -40q27 -28 52 -53l25 -25q1 -1 1 -2t1 -2v-17v-17q0 -49 -16 -96t-46 -86q39 31 86 47q46 16 96 16h16h17q1 0 2 -1t3 -1l26 -26l55 -55q23 -23 41 -42l18 -18
l19 19l42 42q29 30 55 56l27 27h15h15q50 0 97 -17q46 -16 86 -46q-31 39 -47 85q-16 47 -16 96v16v15l18 18l43 43l55 55l26 26l-18 19l-41 41l-55 55l-26 26q-1 1 -1 2t-1 3zM826 353l-26 -25l-25 -26q2 14 3 27q1 14 1 28q1 11 -1 23l-2 24l25 -25zM127 399v0v0
q-4 -24 -3 -46t4 -45l-23 23l-22 22l22 23zM401 575h1v0q25 5 50 5t49 -6q10 -2 20 -5q9 -3 18 -7q5 -2 9 -4t7 -4l3 -1l4 -2q27 -15 48 -37t37 -48l1 -3l2 -3l4 -8q2 -5 4 -8q4 -10 7 -19t4 -19q3 -13 5 -25q1 -12 1 -24q0 -14 -1 -26q-2 -12 -5 -25q-1 -9 -4 -18
q-3 -10 -7 -18q-4 -10 -8 -18q-5 -9 -10 -17q-13 -20 -30 -37t-37 -30q-17 -11 -35 -18q-18 -8 -38 -12q-23 -6 -48 -6t-50 6q-16 4 -31 10q-16 6 -30 14q-27 15 -48 36q-21 22 -35 47l-3 5l-2 4q-3 4 -4 7q-2 4 -4 7q-3 10 -6 19t-5 19q-6 25 -6 50t6 50q2 10 5 19t6 19
q3 3 4 7l2 6q17 31 42 57q26 25 58 42q3 2 6 3q3 2 7 3q9 4 19 7zM659 103v0v0v0v0q-9 1 -19 2t-19 1q25 16 45 36q21 21 37 45q0 -10 1 -19l2 -18q2 -16 5 -31t8 -30q-14 5 -29 8q-16 4 -31 6zM454 -18l-25 25l-26 25q12 -2 25 -3q12 -1 24 -1q13 0 26 1q14 1 27 3l-25 -25
zM244 103v0v0v0v0q-15 -2 -30 -6q-15 -3 -30 -8q5 15 8 30q4 15 5 31q2 9 3 18v19q17 -24 38 -45q20 -20 44 -36q-9 0 -19 -1q-9 -1 -19 -2zM244 611v0v0v0v0q10 -2 19 -3h19q-24 -16 -45 -37t-37 -44v18q-1 9 -3 18q-1 17 -5 31q-3 15 -8 30q15 -5 30 -8q15 -4 30 -5z
M454 725l23 -22l22 -23q-12 2 -24 3q-11 1 -23 1q-11 0 -21 -1q-11 0 -21 -2l22 22zM659 611q15 1 31 4q15 3 29 9q-5 -15 -8 -30t-5 -31l-2 -18q-1 -10 -1 -19q-17 24 -37 45q-21 20 -45 36q9 0 19 1t19 3z" />
</svg>
